<svg width="24" height="16" viewBox="0 0 24 16" fill="none" xmlns="http://www.w3.org/2000/svg">
<path d="M16.0214 8.0459L19.936 11.9605L16.0214 15.8751L12.1068 11.9605L16.0214 8.0459Z" fill="#BC4749"/>
<path d="M8.18842 8.04199L12.1013 11.9548L8.18842 15.8677L4.27557 11.9548L8.18842 8.04199Z" fill="#161616"/>
<rect x="12.1124" y="4.13477" width="5.541" height="5.541" transform="rotate(45 12.1124 4.13477)" fill="#BC4749"/>
<rect x="4.28326" y="4.13477" width="5.541" height="5.541" transform="rotate(45 4.28326 4.13477)" fill="#BC4749"/>
<path d="M16.0251 0.216797L19.9432 4.13488L16.0251 8.05296L12.1071 4.13488L16.0251 0.216797Z" fill="white"/>
<path d="M8.19598 0.216797L12.1141 4.13488L8.19598 8.05296L4.2779 4.13488L8.19598 0.216797Z" fill="#BC4749"/>
<rect x="19.9397" y="4.13135" width="5.541" height="5.541" transform="rotate(45 19.9397 4.13135)" fill="#BC4749"/>
<path d="M12.1124 4.13135L16.0305 8.04943L12.1124 11.9675L8.19435 8.04943L12.1124 4.13135Z" fill="#BC4749"/>
</svg>
