<svg xmlns="http://www.w3.org/2000/svg"><style>:root svg:not(:target){display:none}</style><svg fill="none" id="arrow" viewBox="0 0 11 7"><path d="M10.364 3.453 0 6.476l1.727-3.023L0 .43l10.364 3.023Z" fill="#BC4749"></path></svg><svg fill="none" id="button-arrow" viewBox="0 0 17 17"><rect x=".231" y=".719" width="16" height="16" rx="8" fill="#fff" fill-opacity=".6"></rect><path d="M7.242 6.74 9.22 8.72l-1.98 1.978" stroke="#BC4749" stroke-width=".989" stroke-linecap="square"></path></svg><svg fill="none" id="logo" viewBox="0 0 24 16"><path d="m16.021 8.046 3.915 3.915-3.915 3.914-3.914-3.915 3.914-3.914Z" fill="#BC4749"></path><path d="m8.188 8.042 3.913 3.913-3.913 3.913-3.912-3.913 3.912-3.913Z" fill="#161616"></path><path fill="#BC4749" d="m12.112 4.135 3.918 3.918-3.918 3.918-3.918-3.918z"></path><path fill="#BC4749" d="M4.283 4.135 8.2 8.053 4.283 11.97.365 8.053z"></path><path d="m16.025.217 3.918 3.918-3.918 3.918-3.918-3.918L16.025.217Z" fill="#fff"></path><path d="m8.196.217 3.918 3.918-3.918 3.918-3.918-3.918L8.196.217ZM19.94 4.131l3.918 3.918-3.918 3.918-3.918-3.918z" fill="#BC4749"></path><path d="M12.112 4.131 16.03 8.05l-3.918 3.918L8.194 8.05l3.918-3.918Z" fill="#BC4749"></path></svg></svg>